<svg width="110" height="59" viewBox="0 0 110 59" fill="none" xmlns="http://www.w3.org/2000/svg">
<g clip-path="url(#clip0_29_26)">
<path d="M104.287 22.6343V13.0044C104.287 9.84805 101.719 7.28002 98.5615 7.28002H93.8362V4.20116C93.8362 1.93787 91.9946 0.0962524 89.732 0.0962524H80.3675C79.7478 0.0962524 79.245 0.599043 79.245 1.21876V22.591H31.0181V1.21876C31.0181 0.599043 30.5153 0.0962524 29.8956 0.0962524H20.268C18.0054 0.0962524 16.1638 1.93787 16.1638 4.20116V7.28002H11.4385C8.28142 7.28002 5.71339 9.84805 5.71339 13.0044V22.6343C2.47915 23.1738 0 25.9717 0 29.3568V30.2037C0 33.5888 2.47915 36.3867 5.71339 36.9262V45.9956C5.71339 49.1519 8.28142 51.72 11.4385 51.72H16.1638V54.7988C16.1638 57.0621 18.0054 58.9037 20.268 58.9037H29.8956C30.5153 58.9037 31.0181 58.4009 31.0181 57.7812V36.409H79.245V57.7812C79.245 58.4009 79.7478 58.9037 80.3675 58.9037H89.732C91.9946 58.9037 93.8362 57.0621 93.8362 54.7988V51.72H98.5615C101.719 51.72 104.287 49.1519 104.287 45.9956V36.9262C107.521 36.3867 110 33.5888 110 30.2037V29.3568C110 25.9717 107.521 23.1738 104.287 22.6343Z" fill="#0D7377"/>
</g>
<defs>
<clipPath id="clip0_29_26">
<rect width="110" height="59" fill="white"/>
</clipPath>
</defs>
</svg>
